<?xml version="1.0" encoding="UTF-8" standalone="no"?><svg xmlns="http://www.w3.org/2000/svg" xmlns:xlink="http://www.w3.org/1999/xlink" contentScriptType="application/ecmascript" contentStyleType="text/css" height="316px" preserveAspectRatio="none" style="width:758px;height:316px;" version="1.1" viewBox="0 0 758 316" width="758px" zoomAndPan="magnify"><defs><filter height="300%" id="f1h97rpaiyh07k" width="300%" x="-1" y="-1"><feGaussianBlur result="blurOut" stdDeviation="2.0"/><feColorMatrix in="blurOut" result="blurOut2" type="matrix" values="0 0 0 0 0 0 0 0 0 0 0 0 0 0 0 0 0 0 .4 0"/><feOffset dx="4.0" dy="4.0" in="blurOut2" result="blurOut3"/><feBlend in="SourceGraphic" in2="blurOut3" mode="normal"/></filter></defs><g><!--cluster Client libraries--><polygon fill="#FFFFFF" filter="url(#f1h97rpaiyh07k)" points="103.5,16,223.5,16,230.5,38.2969,652.5,38.2969,652.5,87,103.5,87,103.5,16" style="stroke: #000000; stroke-width: 2.0;"/><line style="stroke: #000000; stroke-width: 2.0;" x1="103.5" x2="230.5" y1="38.2969" y2="38.2969"/><text fill="#000000" font-family="sans-serif" font-size="14" font-weight="bold" lengthAdjust="spacingAndGlyphs" textLength="114" x="107.5" y="30.9951">Client libraries</text><!--entity @inrupt/solid-client-authn-browser--><rect fill="#FEFECE" filter="url(#f1h97rpaiyh07k)" height="36.2969" style="stroke: #A80036; stroke-width: 1.5;" width="259" x="112" y="43"/><rect fill="#FEFECE" height="5" style="stroke: #A80036; stroke-width: 1.5;" width="10" x="107" y="48"/><rect fill="#FEFECE" height="5" style="stroke: #A80036; stroke-width: 1.5;" width="10" x="107" y="69.2969"/><text fill="#000000" font-family="sans-serif" font-size="14" lengthAdjust="spacingAndGlyphs" textLength="239" x="122" y="65.9951">@inrupt/solid-client-authn-browser</text><!--entity @inrupt/solid-client-authn-node--><rect fill="#FEFECE" filter="url(#f1h97rpaiyh07k)" height="36.2969" style="stroke: #A80036; stroke-width: 1.5;" width="239" x="406" y="43"/><rect fill="#FEFECE" height="5" style="stroke: #A80036; stroke-width: 1.5;" width="10" x="401" y="48"/><rect fill="#FEFECE" height="5" style="stroke: #A80036; stroke-width: 1.5;" width="10" x="401" y="69.2969"/><text fill="#000000" font-family="sans-serif" font-size="14" lengthAdjust="spacingAndGlyphs" textLength="219" x="416" y="65.9951">@inrupt/solid-client-authn-node</text><!--entity oidc-client--><rect fill="#FEFECE" filter="url(#f1h97rpaiyh07k)" height="36.2969" style="stroke: #A80036; stroke-width: 1.5;" width="91" x="6" y="156"/><rect fill="#FEFECE" height="5" style="stroke: #A80036; stroke-width: 1.5;" width="10" x="1" y="161"/><rect fill="#FEFECE" height="5" style="stroke: #A80036; stroke-width: 1.5;" width="10" x="1" y="182.2969"/><text fill="#000000" font-family="sans-serif" font-size="14" lengthAdjust="spacingAndGlyphs" textLength="71" x="16" y="178.9951">oidc-client</text><!--entity @inrupt/solid-client-authn-core--><rect fill="#FEFECE" filter="url(#f1h97rpaiyh07k)" height="36.2969" style="stroke: #A80036; stroke-width: 1.5;" width="234" x="250.5" y="269"/><rect fill="#FEFECE" height="5" style="stroke: #A80036; stroke-width: 1.5;" width="10" x="245.5" y="274"/><rect fill="#FEFECE" height="5" style="stroke: #A80036; stroke-width: 1.5;" width="10" x="245.5" y="295.2969"/><text fill="#000000" font-family="sans-serif" font-size="14" lengthAdjust="spacingAndGlyphs" textLength="214" x="260.5" y="291.9951">@inrupt/solid-client-authn-core</text><!--entity @inrupt/oidc-client-ext--><rect fill="#FEFECE" filter="url(#f1h97rpaiyh07k)" height="36.2969" style="stroke: #A80036; stroke-width: 1.5;" width="176" x="279.5" y="156"/><rect fill="#FEFECE" height="5" style="stroke: #A80036; stroke-width: 1.5;" width="10" x="274.5" y="161"/><rect fill="#FEFECE" height="5" style="stroke: #A80036; stroke-width: 1.5;" width="10" x="274.5" y="182.2969"/><text fill="#000000" font-family="sans-serif" font-size="14" lengthAdjust="spacingAndGlyphs" textLength="156" x="289.5" y="178.9951">@inrupt/oidc-client-ext</text><!--entity openid-client--><rect fill="#FEFECE" filter="url(#f1h97rpaiyh07k)" height="36.2969" style="stroke: #A80036; stroke-width: 1.5;" width="110" x="637.5" y="156"/><rect fill="#FEFECE" height="5" style="stroke: #A80036; stroke-width: 1.5;" width="10" x="632.5" y="161"/><rect fill="#FEFECE" height="5" style="stroke: #A80036; stroke-width: 1.5;" width="10" x="632.5" y="182.2969"/><text fill="#000000" font-family="sans-serif" font-size="14" lengthAdjust="spacingAndGlyphs" textLength="90" x="647.5" y="178.9951">openid-client</text><!--link @inrupt/solid-client-authn-browser to oidc-client--><path d="M139.4006,79.1057 C106.5369,86.9114 75.6971,97.0213 64.5,109 C54.1628,120.0587 51.0164,136.914 50.4004,150.6893 " fill="none" id="@inrupt/solid-client-authn-browser-oidc-client" style="stroke: #A80036; stroke-width: 1.0;"/><polygon fill="#A80036" points="50.2779,155.9914,54.4849,147.0863,50.3935,150.9927,46.487,146.9013,50.2779,155.9914" style="stroke: #A80036; stroke-width: 1.0;"/><text fill="#000000" font-family="sans-serif" font-size="13" lengthAdjust="spacingAndGlyphs" textLength="75" x="65.5" y="122.0669">depends on</text><!--link @inrupt/solid-client-authn-browser to @inrupt/solid-client-authn-core--><path d="M222.875,79.1272 C198.4996,105.1285 161.4466,154.0577 184.5,192 C207.27,229.4758 250.1512,252.839 288.6828,267.0146 " fill="none" id="@inrupt/solid-client-authn-browser-@inrupt/solid-client-authn-core" style="stroke: #A80036; stroke-width: 1.0;"/><polygon fill="#A80036" points="293.8442,268.8688,286.7267,262.0614,289.1387,267.1782,284.0218,269.5902,293.8442,268.8688" style="stroke: #A80036; stroke-width: 1.0;"/><text fill="#000000" font-family="sans-serif" font-size="13" lengthAdjust="spacingAndGlyphs" textLength="75" x="185.5" y="178.5669">depends on</text><!--link @inrupt/solid-client-authn-browser to @inrupt/oidc-client-ext--><path d="M261.7441,79.1554 C283.9712,99.0892 319.6424,131.0801 343.3218,152.3164 " fill="none" id="@inrupt/solid-client-authn-browser-@inrupt/oidc-client-ext" style="stroke: #A80036; stroke-width: 1.0;"/><polygon fill="#A80036" points="347.3062,155.8897,343.2765,146.903,343.5838,152.5515,337.9353,152.8588,347.3062,155.8897" style="stroke: #A80036; stroke-width: 1.0;"/><text fill="#000000" font-family="sans-serif" font-size="13" lengthAdjust="spacingAndGlyphs" textLength="75" x="313.5" y="122.0669">depends on</text><!--link @inrupt/solid-client-authn-node to @inrupt/solid-client-authn-core--><path d="M522.274,79.0329 C515.2404,113.7785 495.5771,190.8188 452.5,239 C442.641,250.0272 429.6241,259.1147 416.7488,266.3033 " fill="none" id="@inrupt/solid-client-authn-node-@inrupt/solid-client-authn-core" style="stroke: #A80036; stroke-width: 1.0;"/><polygon fill="#A80036" points="412.0177,268.866,421.8365,268.0967,416.4142,266.4846,418.0263,261.0623,412.0177,268.866" style="stroke: #A80036; stroke-width: 1.0;"/><text fill="#000000" font-family="sans-serif" font-size="13" lengthAdjust="spacingAndGlyphs" textLength="75" x="501.5" y="178.5669">depends on</text><!--link @inrupt/solid-client-authn-node to openid-client--><path d="M552.3314,79.1554 C582.0346,99.254 629.8524,131.6097 661.2292,152.8407 " fill="none" id="@inrupt/solid-client-authn-node-openid-client" style="stroke: #A80036; stroke-width: 1.0;"/><polygon fill="#A80036" points="665.7351,155.8897,660.523,147.533,661.5941,153.0876,656.0396,154.1586,665.7351,155.8897" style="stroke: #A80036; stroke-width: 1.0;"/><text fill="#000000" font-family="sans-serif" font-size="13" lengthAdjust="spacingAndGlyphs" textLength="75" x="619.5" y="122.0669">depends on</text><!--link @inrupt/oidc-client-ext to @inrupt/solid-client-authn-core--><path d="M367.5,192.1554 C367.5,211.595 367.5,242.5012 367.5,263.7174 " fill="none" id="@inrupt/oidc-client-ext-@inrupt/solid-client-authn-core" style="stroke: #A80036; stroke-width: 1.0;"/><polygon fill="#A80036" points="367.5,268.8897,371.5,259.8897,367.5,263.8897,363.5,259.8897,367.5,268.8897" style="stroke: #A80036; stroke-width: 1.0;"/><text fill="#000000" font-family="sans-serif" font-size="13" lengthAdjust="spacingAndGlyphs" textLength="75" x="368.5" y="235.0669">depends on</text><!--
@startuml


package "Client libraries" {
	[@inrupt/solid-client-authn-browser]
	[@inrupt/solid-client-authn-node]
}

[@inrupt/solid-client-authn-browser] - -> [oidc-client]: depends on
[@inrupt/solid-client-authn-browser] - -> [@inrupt/solid-client-authn-core]: depends on
[@inrupt/solid-client-authn-browser] - -> [@inrupt/oidc-client-ext]: depends on
[@inrupt/solid-client-authn-node] - -> [@inrupt/solid-client-authn-core]: depends on
[@inrupt/solid-client-authn-node] - -> [openid-client]: depends on
[@inrupt/oidc-client-ext] - -> [@inrupt/solid-client-authn-core]: depends on


@enduml

PlantUML version 1.2017.15(Mon Jul 03 18:45:34 CEST 2017)
(GPL source distribution)
Java Runtime: OpenJDK Runtime Environment
JVM: OpenJDK 64-Bit Server VM
Java Version: 11.0.11+9-Ubuntu-0ubuntu2.18.04
Operating System: Linux
OS Version: 4.15.0-142-generic
Default Encoding: UTF-8
Language: fr
Country: FR
--></g></svg>