<?xml version="1.0" encoding="UTF-8" standalone="no"?><svg xmlns="http://www.w3.org/2000/svg" xmlns:xlink="http://www.w3.org/1999/xlink" contentScriptType="application/ecmascript" contentStyleType="text/css" height="316px" preserveAspectRatio="none" style="width:467px;height:316px;" version="1.1" viewBox="0 0 467 316" width="467px" zoomAndPan="magnify"><defs><filter height="300%" id="f1lgxr19ijsz5o" width="300%" x="-1" y="-1"><feGaussianBlur result="blurOut" stdDeviation="2.0"/><feColorMatrix in="blurOut" result="blurOut2" type="matrix" values="0 0 0 0 0 0 0 0 0 0 0 0 0 0 0 0 0 0 .4 0"/><feOffset dx="4.0" dy="4.0" in="blurOut2" result="blurOut3"/><feBlend in="SourceGraphic" in2="blurOut3" mode="normal"/></filter></defs><g><!--cluster Client libraries--><polygon fill="#FFFFFF" filter="url(#f1lgxr19ijsz5o)" points="14,16,134,16,141,38.2969,445,38.2969,445,87,14,87,14,16" style="stroke: #000000; stroke-width: 2.0;"/><line style="stroke: #000000; stroke-width: 2.0;" x1="14" x2="141" y1="38.2969" y2="38.2969"/><text fill="#000000" font-family="sans-serif" font-size="14" font-weight="bold" lengthAdjust="spacingAndGlyphs" textLength="114" x="18" y="30.9951">Client libraries</text><!--entity solid-client-authn-browser--><rect fill="#FEFECE" filter="url(#f1lgxr19ijsz5o)" height="36.2969" style="stroke: #A80036; stroke-width: 1.5;" width="200" x="22" y="43"/><rect fill="#FEFECE" height="5" style="stroke: #A80036; stroke-width: 1.5;" width="10" x="17" y="48"/><rect fill="#FEFECE" height="5" style="stroke: #A80036; stroke-width: 1.5;" width="10" x="17" y="69.2969"/><text fill="#000000" font-family="sans-serif" font-size="14" lengthAdjust="spacingAndGlyphs" textLength="180" x="32" y="65.9951">solid-client-authn-browser</text><!--entity solid-client-authn-node--><rect fill="#FEFECE" filter="url(#f1lgxr19ijsz5o)" height="36.2969" style="stroke: #A80036; stroke-width: 1.5;" width="180" x="257" y="43"/><rect fill="#FEFECE" height="5" style="stroke: #A80036; stroke-width: 1.5;" width="10" x="252" y="48"/><rect fill="#FEFECE" height="5" style="stroke: #A80036; stroke-width: 1.5;" width="10" x="252" y="69.2969"/><text fill="#000000" font-family="sans-serif" font-size="14" lengthAdjust="spacingAndGlyphs" textLength="160" x="267" y="65.9951">solid-client-authn-node</text><!--entity solid-client-authn-core--><rect fill="#FEFECE" filter="url(#f1lgxr19ijsz5o)" height="36.2969" style="stroke: #A80036; stroke-width: 1.5;" width="175" x="130.5" y="269"/><rect fill="#FEFECE" height="5" style="stroke: #A80036; stroke-width: 1.5;" width="10" x="125.5" y="274"/><rect fill="#FEFECE" height="5" style="stroke: #A80036; stroke-width: 1.5;" width="10" x="125.5" y="295.2969"/><text fill="#000000" font-family="sans-serif" font-size="14" lengthAdjust="spacingAndGlyphs" textLength="155" x="140.5" y="291.9951">solid-client-authn-core</text><!--entity oidc-client-ext--><rect fill="#FEFECE" filter="url(#f1lgxr19ijsz5o)" height="36.2969" style="stroke: #A80036; stroke-width: 1.5;" width="117" x="159.5" y="156"/><rect fill="#FEFECE" height="5" style="stroke: #A80036; stroke-width: 1.5;" width="10" x="154.5" y="161"/><rect fill="#FEFECE" height="5" style="stroke: #A80036; stroke-width: 1.5;" width="10" x="154.5" y="182.2969"/><text fill="#000000" font-family="sans-serif" font-size="14" lengthAdjust="spacingAndGlyphs" textLength="97" x="169.5" y="178.9951">oidc-client-ext</text><!--link solid-client-authn-browser to solid-client-authn-core--><path d="M103.3735,79.3277 C79.4808,105.1554 43.5412,153.4171 65,192 C84.9166,227.8101 124.5388,251.8526 158.471,266.791 " fill="none" id="solid-client-authn-browser-solid-client-authn-core" style="stroke: #A80036; stroke-width: 1.0;"/><polygon fill="#A80036" points="163.4331,268.9293,156.7508,261.6942,158.8413,266.9506,153.5849,269.0411,163.4331,268.9293" style="stroke: #A80036; stroke-width: 1.0;"/><text fill="#000000" font-family="sans-serif" font-size="13" lengthAdjust="spacingAndGlyphs" textLength="75" x="66" y="178.5669">depends on</text><!--link solid-client-authn-browser to oidc-client-ext--><path d="M137.4241,79.1554 C154.289,99.0069 181.3126,130.8159 199.3544,152.0526 " fill="none" id="solid-client-authn-browser-oidc-client-ext" style="stroke: #A80036; stroke-width: 1.0;"/><polygon fill="#A80036" points="202.6142,155.8897,199.8354,146.441,199.3769,152.0792,193.7386,151.6207,202.6142,155.8897" style="stroke: #A80036; stroke-width: 1.0;"/><text fill="#000000" font-family="sans-serif" font-size="13" lengthAdjust="spacingAndGlyphs" textLength="75" x="176" y="122.0669">depends on</text><!--link solid-client-authn-node to solid-client-authn-core--><path d="M347.0685,79.145 C346.2973,113.7482 340.1583,190.0732 303,239 C294.4188,250.2989 282.3598,259.3412 270.0153,266.3944 " fill="none" id="solid-client-authn-node-solid-client-authn-core" style="stroke: #A80036; stroke-width: 1.0;"/><polygon fill="#A80036" points="265.4603,268.9034,275.2734,268.0647,269.8398,266.491,271.4135,261.0574,265.4603,268.9034" style="stroke: #A80036; stroke-width: 1.0;"/><text fill="#000000" font-family="sans-serif" font-size="13" lengthAdjust="spacingAndGlyphs" textLength="75" x="339" y="178.5669">depends on</text><!--link oidc-client-ext to solid-client-authn-core--><path d="M218,192.1554 C218,211.595 218,242.5012 218,263.7174 " fill="none" id="oidc-client-ext-solid-client-authn-core" style="stroke: #A80036; stroke-width: 1.0;"/><polygon fill="#A80036" points="218,268.8897,222,259.8897,218,263.8897,214,259.8897,218,268.8897" style="stroke: #A80036; stroke-width: 1.0;"/><text fill="#000000" font-family="sans-serif" font-size="13" lengthAdjust="spacingAndGlyphs" textLength="75" x="219" y="235.0669">depends on</text><!--
@startuml


package "Client libraries" {
	[solid-client-authn-browser]
	[solid-client-authn-node]
}

[solid-client-authn-browser] - -> [solid-client-authn-core]: depends on
[solid-client-authn-browser] - -> [oidc-client-ext]: depends on
[solid-client-authn-node] - -> [solid-client-authn-core]: depends on
[oidc-client-ext] - -> [solid-client-authn-core]: depends on


@enduml

PlantUML version 1.2017.15(Mon Jul 03 18:45:34 CEST 2017)
(GPL source distribution)
Java Runtime: OpenJDK Runtime Environment
JVM: OpenJDK 64-Bit Server VM
Java Version: 11.0.11+9-Ubuntu-0ubuntu2.18.04
Operating System: Linux
OS Version: 4.15.0-142-generic
Default Encoding: UTF-8
Language: fr
Country: FR
--></g></svg>