<?xml version="1.0" encoding="UTF-8" standalone="no"?><svg xmlns="http://www.w3.org/2000/svg" xmlns:xlink="http://www.w3.org/1999/xlink" contentScriptType="application/ecmascript" contentStyleType="text/css" height="316px" preserveAspectRatio="none" style="width:685px;height:316px;" version="1.1" viewBox="0 0 685 316" width="685px" zoomAndPan="magnify"><defs><filter height="300%" id="f1oc3mvz4cpnj" width="300%" x="-1" y="-1"><feGaussianBlur result="blurOut" stdDeviation="2.0"/><feColorMatrix in="blurOut" result="blurOut2" type="matrix" values="0 0 0 0 0 0 0 0 0 0 0 0 0 0 0 0 0 0 .4 0"/><feOffset dx="4.0" dy="4.0" in="blurOut2" result="blurOut3"/><feBlend in="SourceGraphic" in2="blurOut3" mode="normal"/></filter></defs><g><!--cluster Client libraries--><polygon fill="#FFFFFF" filter="url(#f1oc3mvz4cpnj)" points="103,16,223,16,230,38.2969,652,38.2969,652,87,103,87,103,16" style="stroke: #000000; stroke-width: 2.0;"/><line style="stroke: #000000; stroke-width: 2.0;" x1="103" x2="230" y1="38.2969" y2="38.2969"/><text fill="#000000" font-family="sans-serif" font-size="14" font-weight="bold" lengthAdjust="spacingAndGlyphs" textLength="114" x="107" y="30.9951">Client libraries</text><!--entity @inrupt/solid-client-authn-browser--><rect fill="#FEFECE" filter="url(#f1oc3mvz4cpnj)" height="36.2969" style="stroke: #A80036; stroke-width: 1.5;" width="259" x="111.5" y="43"/><rect fill="#FEFECE" height="5" style="stroke: #A80036; stroke-width: 1.5;" width="10" x="106.5" y="48"/><rect fill="#FEFECE" height="5" style="stroke: #A80036; stroke-width: 1.5;" width="10" x="106.5" y="69.2969"/><text fill="#000000" font-family="sans-serif" font-size="14" lengthAdjust="spacingAndGlyphs" textLength="239" x="121.5" y="65.9951">@inrupt/solid-client-authn-browser</text><!--entity @inrupt/solid-client-authn-node--><rect fill="#FEFECE" filter="url(#f1oc3mvz4cpnj)" height="36.2969" style="stroke: #A80036; stroke-width: 1.5;" width="239" x="405.5" y="43"/><rect fill="#FEFECE" height="5" style="stroke: #A80036; stroke-width: 1.5;" width="10" x="400.5" y="48"/><rect fill="#FEFECE" height="5" style="stroke: #A80036; stroke-width: 1.5;" width="10" x="400.5" y="69.2969"/><text fill="#000000" font-family="sans-serif" font-size="14" lengthAdjust="spacingAndGlyphs" textLength="219" x="415.5" y="65.9951">@inrupt/solid-client-authn-node</text><!--entity @inrupt/oidc-client-ext--><rect fill="#FEFECE" filter="url(#f1oc3mvz4cpnj)" height="36.2969" style="stroke: #A80036; stroke-width: 1.5;" width="176" x="59" y="156"/><rect fill="#FEFECE" height="5" style="stroke: #A80036; stroke-width: 1.5;" width="10" x="54" y="161"/><rect fill="#FEFECE" height="5" style="stroke: #A80036; stroke-width: 1.5;" width="10" x="54" y="182.2969"/><text fill="#000000" font-family="sans-serif" font-size="14" lengthAdjust="spacingAndGlyphs" textLength="156" x="69" y="178.9951">@inrupt/oidc-client-ext</text><!--entity @inrupt/oidc-client--><rect fill="#FEFECE" filter="url(#f1oc3mvz4cpnj)" height="36.2969" style="stroke: #A80036; stroke-width: 1.5;" width="150" x="6" y="269"/><rect fill="#FEFECE" height="5" style="stroke: #A80036; stroke-width: 1.5;" width="10" x="1" y="274"/><rect fill="#FEFECE" height="5" style="stroke: #A80036; stroke-width: 1.5;" width="10" x="1" y="295.2969"/><text fill="#000000" font-family="sans-serif" font-size="14" lengthAdjust="spacingAndGlyphs" textLength="130" x="16" y="291.9951">@inrupt/oidc-client</text><!--entity @inrupt/solid-client-authn-core--><rect fill="#FEFECE" filter="url(#f1oc3mvz4cpnj)" height="36.2969" style="stroke: #A80036; stroke-width: 1.5;" width="234" x="191" y="269"/><rect fill="#FEFECE" height="5" style="stroke: #A80036; stroke-width: 1.5;" width="10" x="186" y="274"/><rect fill="#FEFECE" height="5" style="stroke: #A80036; stroke-width: 1.5;" width="10" x="186" y="295.2969"/><text fill="#000000" font-family="sans-serif" font-size="14" lengthAdjust="spacingAndGlyphs" textLength="214" x="201" y="291.9951">@inrupt/solid-client-authn-core</text><!--entity openid-client--><rect fill="#FEFECE" filter="url(#f1oc3mvz4cpnj)" height="36.2969" style="stroke: #A80036; stroke-width: 1.5;" width="110" x="564" y="156"/><rect fill="#FEFECE" height="5" style="stroke: #A80036; stroke-width: 1.5;" width="10" x="559" y="161"/><rect fill="#FEFECE" height="5" style="stroke: #A80036; stroke-width: 1.5;" width="10" x="559" y="182.2969"/><text fill="#000000" font-family="sans-serif" font-size="14" lengthAdjust="spacingAndGlyphs" textLength="90" x="574" y="178.9951">openid-client</text><!--link @inrupt/oidc-client-ext to @inrupt/oidc-client--><path d="M111.799,192.0185 C100.5676,199.6539 89.4016,209.6744 83,222 C76.3847,234.737 75.8463,250.8527 76.9807,263.8506 " fill="none" id="@inrupt/oidc-client-ext-@inrupt/oidc-client" style="stroke: #A80036; stroke-width: 1.0;"/><polygon fill="#A80036" points="77.5106,268.8467,80.5389,259.475,76.9832,263.8746,72.5836,260.3189,77.5106,268.8467" style="stroke: #A80036; stroke-width: 1.0;"/><text fill="#000000" font-family="sans-serif" font-size="13" lengthAdjust="spacingAndGlyphs" textLength="75" x="84" y="235.0669">depends on</text><!--link @inrupt/solid-client-authn-browser to @inrupt/solid-client-authn-core--><path d="M261.4547,79.2218 C269.4641,87.5045 277.9314,97.9243 283,109 C306.5432,160.4457 309.2784,228.3 308.8701,263.5187 " fill="none" id="@inrupt/solid-client-authn-browser-@inrupt/solid-client-authn-core" style="stroke: #A80036; stroke-width: 1.0;"/><polygon fill="#A80036" points="308.7803,268.8834,312.9304,259.9516,308.864,263.8841,304.9315,259.8177,308.7803,268.8834" style="stroke: #A80036; stroke-width: 1.0;"/><text fill="#000000" font-family="sans-serif" font-size="13" lengthAdjust="spacingAndGlyphs" textLength="75" x="306" y="178.5669">depends on</text><!--link @inrupt/solid-client-authn-browser to @inrupt/oidc-client-ext--><path d="M225.8973,79.1554 C209.4522,98.9245 183.1425,130.5521 165.4775,151.7877 " fill="none" id="@inrupt/solid-client-authn-browser-@inrupt/oidc-client-ext" style="stroke: #A80036; stroke-width: 1.0;"/><polygon fill="#A80036" points="162.0652,155.8897,170.896,151.5288,165.2628,152.0458,164.7458,146.4126,162.0652,155.8897" style="stroke: #A80036; stroke-width: 1.0;"/><text fill="#000000" font-family="sans-serif" font-size="13" lengthAdjust="spacingAndGlyphs" textLength="75" x="201" y="122.0669">depends on</text><!--link @inrupt/solid-client-authn-node to @inrupt/solid-client-authn-core--><path d="M507.6088,79.1125 C468.0884,120.272 371.6541,220.7059 328.9461,265.1852 " fill="none" id="@inrupt/solid-client-authn-node-@inrupt/solid-client-authn-core" style="stroke: #A80036; stroke-width: 1.0;"/><polygon fill="#A80036" points="325.474,268.8012,334.5927,265.0798,328.937,265.1946,328.8222,259.5389,325.474,268.8012" style="stroke: #A80036; stroke-width: 1.0;"/><text fill="#000000" font-family="sans-serif" font-size="13" lengthAdjust="spacingAndGlyphs" textLength="75" x="432" y="178.5669">depends on</text><!--link @inrupt/solid-client-authn-node to openid-client--><path d="M540.1027,79.1554 C556.5478,98.9245 582.8575,130.5521 600.5225,151.7877 " fill="none" id="@inrupt/solid-client-authn-node-openid-client" style="stroke: #A80036; stroke-width: 1.0;"/><polygon fill="#A80036" points="603.9348,155.8897,601.2542,146.4126,600.7372,152.0458,595.104,151.5288,603.9348,155.8897" style="stroke: #A80036; stroke-width: 1.0;"/><text fill="#000000" font-family="sans-serif" font-size="13" lengthAdjust="spacingAndGlyphs" textLength="75" x="578" y="122.0669">depends on</text><!--link @inrupt/oidc-client-ext to @inrupt/solid-client-authn-core--><path d="M158.9912,192.194 C169.0988,206.4151 184.6599,225.9033 202,239 C216.8087,250.1847 234.6387,259.5232 251.4149,266.9002 " fill="none" id="@inrupt/oidc-client-ext-@inrupt/solid-client-authn-core" style="stroke: #A80036; stroke-width: 1.0;"/><polygon fill="#A80036" points="256.1153,268.9288,249.4371,261.6899,251.5246,266.9475,246.267,269.0351,256.1153,268.9288" style="stroke: #A80036; stroke-width: 1.0;"/><text fill="#000000" font-family="sans-serif" font-size="13" lengthAdjust="spacingAndGlyphs" textLength="75" x="203" y="235.0669">depends on</text><!--
@startuml


package "Client libraries" {
	[@inrupt/solid-client-authn-browser]
	[@inrupt/solid-client-authn-node]
}

[@inrupt/oidc-client-ext] - -> [@inrupt/oidc-client]: depends on
[@inrupt/solid-client-authn-browser] - -> [@inrupt/solid-client-authn-core]: depends on
[@inrupt/solid-client-authn-browser] - -> [@inrupt/oidc-client-ext]: depends on
[@inrupt/solid-client-authn-node] - -> [@inrupt/solid-client-authn-core]: depends on
[@inrupt/solid-client-authn-node] - -> [openid-client]: depends on
[@inrupt/oidc-client-ext] - -> [@inrupt/solid-client-authn-core]: depends on


@enduml

PlantUML version 1.2017.15(Mon Jul 03 18:45:34 CEST 2017)
(GPL source distribution)
Java Runtime: OpenJDK Runtime Environment
JVM: OpenJDK 64-Bit Server VM
Java Version: 11.0.11+9-Ubuntu-0ubuntu2.18.04
Operating System: Linux
OS Version: 4.15.0-154-generic
Default Encoding: UTF-8
Language: fr
Country: FR
--></g></svg>