<?xml version="1.0" encoding="UTF-8" standalone="no"?><svg xmlns="http://www.w3.org/2000/svg" xmlns:xlink="http://www.w3.org/1999/xlink" contentScriptType="application/ecmascript" contentStyleType="text/css" height="316px" preserveAspectRatio="none" style="width:648px;height:316px;" version="1.1" viewBox="0 0 648 316" width="648px" zoomAndPan="magnify"><defs><filter height="300%" id="f6ywit6eybx98" width="300%" x="-1" y="-1"><feGaussianBlur result="blurOut" stdDeviation="2.0"/><feColorMatrix in="blurOut" result="blurOut2" type="matrix" values="0 0 0 0 0 0 0 0 0 0 0 0 0 0 0 0 0 0 .4 0"/><feOffset dx="4.0" dy="4.0" in="blurOut2" result="blurOut3"/><feBlend in="SourceGraphic" in2="blurOut3" mode="normal"/></filter></defs><g><!--cluster Client libraries--><polygon fill="#FFFFFF" filter="url(#f6ywit6eybx98)" points="66.5,16,186.5,16,193.5,38.2969,615.5,38.2969,615.5,87,66.5,87,66.5,16" style="stroke: #000000; stroke-width: 2.0;"/><line style="stroke: #000000; stroke-width: 2.0;" x1="66.5" x2="193.5" y1="38.2969" y2="38.2969"/><text fill="#000000" font-family="sans-serif" font-size="14" font-weight="bold" lengthAdjust="spacingAndGlyphs" textLength="114" x="70.5" y="30.9951">Client libraries</text><!--entity @inrupt/solid-client-authn-browser--><rect fill="#FEFECE" filter="url(#f6ywit6eybx98)" height="36.2969" style="stroke: #A80036; stroke-width: 1.5;" width="259" x="75" y="43"/><rect fill="#FEFECE" height="5" style="stroke: #A80036; stroke-width: 1.5;" width="10" x="70" y="48"/><rect fill="#FEFECE" height="5" style="stroke: #A80036; stroke-width: 1.5;" width="10" x="70" y="69.2969"/><text fill="#000000" font-family="sans-serif" font-size="14" lengthAdjust="spacingAndGlyphs" textLength="239" x="85" y="65.9951">@inrupt/solid-client-authn-browser</text><!--entity @inrupt/solid-client-authn-node--><rect fill="#FEFECE" filter="url(#f6ywit6eybx98)" height="36.2969" style="stroke: #A80036; stroke-width: 1.5;" width="239" x="369" y="43"/><rect fill="#FEFECE" height="5" style="stroke: #A80036; stroke-width: 1.5;" width="10" x="364" y="48"/><rect fill="#FEFECE" height="5" style="stroke: #A80036; stroke-width: 1.5;" width="10" x="364" y="69.2969"/><text fill="#000000" font-family="sans-serif" font-size="14" lengthAdjust="spacingAndGlyphs" textLength="219" x="379" y="65.9951">@inrupt/solid-client-authn-node</text><!--entity @inrupt/oidc-client-ext--><rect fill="#FEFECE" filter="url(#f6ywit6eybx98)" height="36.2969" style="stroke: #A80036; stroke-width: 1.5;" width="176" x="22.5" y="156"/><rect fill="#FEFECE" height="5" style="stroke: #A80036; stroke-width: 1.5;" width="10" x="17.5" y="161"/><rect fill="#FEFECE" height="5" style="stroke: #A80036; stroke-width: 1.5;" width="10" x="17.5" y="182.2969"/><text fill="#000000" font-family="sans-serif" font-size="14" lengthAdjust="spacingAndGlyphs" textLength="156" x="32.5" y="178.9951">@inrupt/oidc-client-ext</text><!--entity oidc-client--><rect fill="#FEFECE" filter="url(#f6ywit6eybx98)" height="36.2969" style="stroke: #A80036; stroke-width: 1.5;" width="91" x="6" y="269"/><rect fill="#FEFECE" height="5" style="stroke: #A80036; stroke-width: 1.5;" width="10" x="1" y="274"/><rect fill="#FEFECE" height="5" style="stroke: #A80036; stroke-width: 1.5;" width="10" x="1" y="295.2969"/><text fill="#000000" font-family="sans-serif" font-size="14" lengthAdjust="spacingAndGlyphs" textLength="71" x="16" y="291.9951">oidc-client</text><!--entity @inrupt/solid-client-authn-core--><rect fill="#FEFECE" filter="url(#f6ywit6eybx98)" height="36.2969" style="stroke: #A80036; stroke-width: 1.5;" width="234" x="151.5" y="269"/><rect fill="#FEFECE" height="5" style="stroke: #A80036; stroke-width: 1.5;" width="10" x="146.5" y="274"/><rect fill="#FEFECE" height="5" style="stroke: #A80036; stroke-width: 1.5;" width="10" x="146.5" y="295.2969"/><text fill="#000000" font-family="sans-serif" font-size="14" lengthAdjust="spacingAndGlyphs" textLength="214" x="161.5" y="291.9951">@inrupt/solid-client-authn-core</text><!--entity openid-client--><rect fill="#FEFECE" filter="url(#f6ywit6eybx98)" height="36.2969" style="stroke: #A80036; stroke-width: 1.5;" width="110" x="527.5" y="156"/><rect fill="#FEFECE" height="5" style="stroke: #A80036; stroke-width: 1.5;" width="10" x="522.5" y="161"/><rect fill="#FEFECE" height="5" style="stroke: #A80036; stroke-width: 1.5;" width="10" x="522.5" y="182.2969"/><text fill="#000000" font-family="sans-serif" font-size="14" lengthAdjust="spacingAndGlyphs" textLength="90" x="537.5" y="178.9951">openid-client</text><!--link @inrupt/oidc-client-ext to oidc-client--><path d="M76.1683,192.1341 C65.2662,199.7805 54.4944,209.7782 48.5,222 C42.1761,234.8936 42.8726,251.0103 45.1766,263.9696 " fill="none" id="@inrupt/oidc-client-ext-oidc-client" style="stroke: #A80036; stroke-width: 1.0;"/><polygon fill="#A80036" points="46.1664,268.9486,48.3346,259.3414,45.1914,264.0446,40.4882,260.9014,46.1664,268.9486" style="stroke: #A80036; stroke-width: 1.0;"/><text fill="#000000" font-family="sans-serif" font-size="13" lengthAdjust="spacingAndGlyphs" textLength="75" x="49.5" y="235.0669">depends on</text><!--link @inrupt/solid-client-authn-browser to @inrupt/solid-client-authn-core--><path d="M225.0444,79.1812 C233.0689,87.457 241.5233,97.8827 246.5,109 C269.5658,160.5261 270.9952,228.347 269.8654,263.5393 " fill="none" id="@inrupt/solid-client-authn-browser-@inrupt/solid-client-authn-core" style="stroke: #A80036; stroke-width: 1.0;"/><polygon fill="#A80036" points="269.665,268.8998,273.9985,260.0556,269.8519,263.9033,266.0041,259.7566,269.665,268.8998" style="stroke: #A80036; stroke-width: 1.0;"/><text fill="#000000" font-family="sans-serif" font-size="13" lengthAdjust="spacingAndGlyphs" textLength="75" x="268.5" y="178.5669">depends on</text><!--link @inrupt/solid-client-authn-browser to @inrupt/oidc-client-ext--><path d="M189.3973,79.1554 C172.9522,98.9245 146.6425,130.5521 128.9775,151.7877 " fill="none" id="@inrupt/solid-client-authn-browser-@inrupt/oidc-client-ext" style="stroke: #A80036; stroke-width: 1.0;"/><polygon fill="#A80036" points="125.5652,155.8897,134.396,151.5288,128.7628,152.0458,128.2458,146.4126,125.5652,155.8897" style="stroke: #A80036; stroke-width: 1.0;"/><text fill="#000000" font-family="sans-serif" font-size="13" lengthAdjust="spacingAndGlyphs" textLength="75" x="164.5" y="122.0669">depends on</text><!--link @inrupt/solid-client-authn-node to @inrupt/solid-client-authn-core--><path d="M470.8684,79.1125 C430.8016,120.272 333.0341,220.7059 289.7356,265.1852 " fill="none" id="@inrupt/solid-client-authn-node-@inrupt/solid-client-authn-core" style="stroke: #A80036; stroke-width: 1.0;"/><polygon fill="#A80036" points="286.2156,268.8012,295.3595,265.1421,289.7032,265.2183,289.6269,259.562,286.2156,268.8012" style="stroke: #A80036; stroke-width: 1.0;"/><text fill="#000000" font-family="sans-serif" font-size="13" lengthAdjust="spacingAndGlyphs" textLength="75" x="394.5" y="178.5669">depends on</text><!--link @inrupt/solid-client-authn-node to openid-client--><path d="M503.6027,79.1554 C520.0478,98.9245 546.3575,130.5521 564.0225,151.7877 " fill="none" id="@inrupt/solid-client-authn-node-openid-client" style="stroke: #A80036; stroke-width: 1.0;"/><polygon fill="#A80036" points="567.4348,155.8897,564.7542,146.4126,564.2372,152.0458,558.604,151.5288,567.4348,155.8897" style="stroke: #A80036; stroke-width: 1.0;"/><text fill="#000000" font-family="sans-serif" font-size="13" lengthAdjust="spacingAndGlyphs" textLength="75" x="541.5" y="122.0669">depends on</text><!--link @inrupt/oidc-client-ext to @inrupt/solid-client-authn-core--><path d="M122.5301,192.1427 C132.6598,206.3349 148.2315,225.8091 165.5,239 C180.0454,250.1107 197.5762,259.4726 214.018,266.8939 " fill="none" id="@inrupt/oidc-client-ext-@inrupt/solid-client-authn-core" style="stroke: #A80036; stroke-width: 1.0;"/><polygon fill="#A80036" points="218.6232,268.9354,212.0166,261.6311,214.0522,266.909,208.7743,268.9446,218.6232,268.9354" style="stroke: #A80036; stroke-width: 1.0;"/><text fill="#000000" font-family="sans-serif" font-size="13" lengthAdjust="spacingAndGlyphs" textLength="75" x="166.5" y="235.0669">depends on</text><!--
@startuml


package "Client libraries" {
	[@inrupt/solid-client-authn-browser]
	[@inrupt/solid-client-authn-node]
}

[@inrupt/oidc-client-ext] - -> [oidc-client]: depends on
[@inrupt/solid-client-authn-browser] - -> [@inrupt/solid-client-authn-core]: depends on
[@inrupt/solid-client-authn-browser] - -> [@inrupt/oidc-client-ext]: depends on
[@inrupt/solid-client-authn-node] - -> [@inrupt/solid-client-authn-core]: depends on
[@inrupt/solid-client-authn-node] - -> [openid-client]: depends on
[@inrupt/oidc-client-ext] - -> [@inrupt/solid-client-authn-core]: depends on


@enduml

PlantUML version 1.2017.15(Mon Jul 03 18:45:34 CEST 2017)
(GPL source distribution)
Java Runtime: OpenJDK Runtime Environment
JVM: OpenJDK 64-Bit Server VM
Java Version: 11.0.11+9-Ubuntu-0ubuntu2.18.04
Operating System: Linux
OS Version: 4.15.0-142-generic
Default Encoding: UTF-8
Language: fr
Country: FR
--></g></svg>