<?xml version="1.0" encoding="UTF-8" standalone="no"?><svg xmlns="http://www.w3.org/2000/svg" xmlns:xlink="http://www.w3.org/1999/xlink" contentScriptType="application/ecmascript" contentStyleType="text/css" height="203px" preserveAspectRatio="none" style="width:467px;height:203px;" version="1.1" viewBox="0 0 467 203" width="467px" zoomAndPan="magnify"><defs><filter height="300%" id="f3f390p7lygmk" width="300%" x="-1" y="-1"><feGaussianBlur result="blurOut" stdDeviation="2.0"/><feColorMatrix in="blurOut" result="blurOut2" type="matrix" values="0 0 0 0 0 0 0 0 0 0 0 0 0 0 0 0 0 0 .4 0"/><feOffset dx="4.0" dy="4.0" in="blurOut2" result="blurOut3"/><feBlend in="SourceGraphic" in2="blurOut3" mode="normal"/></filter></defs><g><!--cluster Client libraries--><polygon fill="#FFFFFF" filter="url(#f3f390p7lygmk)" points="14,16,134,16,141,38.2969,445,38.2969,445,87,14,87,14,16" style="stroke: #000000; stroke-width: 2.0;"/><line style="stroke: #000000; stroke-width: 2.0;" x1="14" x2="141" y1="38.2969" y2="38.2969"/><text fill="#000000" font-family="sans-serif" font-size="14" font-weight="bold" lengthAdjust="spacingAndGlyphs" textLength="114" x="18" y="30.9951">Client libraries</text><!--entity solid-client-authn-browser--><rect fill="#FEFECE" filter="url(#f3f390p7lygmk)" height="36.2969" style="stroke: #A80036; stroke-width: 1.5;" width="200" x="237" y="43"/><rect fill="#FEFECE" height="5" style="stroke: #A80036; stroke-width: 1.5;" width="10" x="232" y="48"/><rect fill="#FEFECE" height="5" style="stroke: #A80036; stroke-width: 1.5;" width="10" x="232" y="69.2969"/><text fill="#000000" font-family="sans-serif" font-size="14" lengthAdjust="spacingAndGlyphs" textLength="180" x="247" y="65.9951">solid-client-authn-browser</text><!--entity solid-client-authn-node--><rect fill="#FEFECE" filter="url(#f3f390p7lygmk)" height="36.2969" style="stroke: #A80036; stroke-width: 1.5;" width="180" x="22" y="43"/><rect fill="#FEFECE" height="5" style="stroke: #A80036; stroke-width: 1.5;" width="10" x="17" y="48"/><rect fill="#FEFECE" height="5" style="stroke: #A80036; stroke-width: 1.5;" width="10" x="17" y="69.2969"/><text fill="#000000" font-family="sans-serif" font-size="14" lengthAdjust="spacingAndGlyphs" textLength="160" x="32" y="65.9951">solid-client-authn-node</text><!--entity solid-client-authn-core--><rect fill="#FEFECE" filter="url(#f3f390p7lygmk)" height="36.2969" style="stroke: #A80036; stroke-width: 1.5;" width="175" x="51.5" y="156"/><rect fill="#FEFECE" height="5" style="stroke: #A80036; stroke-width: 1.5;" width="10" x="46.5" y="161"/><rect fill="#FEFECE" height="5" style="stroke: #A80036; stroke-width: 1.5;" width="10" x="46.5" y="182.2969"/><text fill="#000000" font-family="sans-serif" font-size="14" lengthAdjust="spacingAndGlyphs" textLength="155" x="61.5" y="178.9951">solid-client-authn-core</text><!--entity oidc-client-ext--><rect fill="#FEFECE" filter="url(#f3f390p7lygmk)" height="36.2969" style="stroke: #A80036; stroke-width: 1.5;" width="117" x="287.5" y="156"/><rect fill="#FEFECE" height="5" style="stroke: #A80036; stroke-width: 1.5;" width="10" x="282.5" y="161"/><rect fill="#FEFECE" height="5" style="stroke: #A80036; stroke-width: 1.5;" width="10" x="282.5" y="182.2969"/><text fill="#000000" font-family="sans-serif" font-size="14" lengthAdjust="spacingAndGlyphs" textLength="97" x="297.5" y="178.9951">oidc-client-ext</text><!--link solid-client-authn-browser to solid-client-authn-core--><path d="M305.1879,79.1554 C269.6822,99.4187 212.346,132.1409 175.1647,153.3605 " fill="none" id="solid-client-authn-browser-solid-client-authn-core" style="stroke: #A80036; stroke-width: 1.0;"/><polygon fill="#A80036" points="170.7332,155.8897,180.5325,154.9026,175.0757,153.4113,176.567,147.9546,170.7332,155.8897" style="stroke: #A80036; stroke-width: 1.0;"/><text fill="#000000" font-family="sans-serif" font-size="13" lengthAdjust="spacingAndGlyphs" textLength="75" x="250" y="122.0669">depends on</text><!--link solid-client-authn-browser to oidc-client-ext--><path d="M338.446,79.1554 C339.9943,98.595 342.4558,129.5012 344.1456,150.7174 " fill="none" id="solid-client-authn-browser-oidc-client-ext" style="stroke: #A80036; stroke-width: 1.0;"/><polygon fill="#A80036" points="344.5576,155.8897,347.8304,146.6005,344.1606,150.9055,339.8556,147.2357,344.5576,155.8897" style="stroke: #A80036; stroke-width: 1.0;"/><text fill="#000000" font-family="sans-serif" font-size="13" lengthAdjust="spacingAndGlyphs" textLength="75" x="343" y="122.0669">depends on</text><!--link solid-client-authn-node to solid-client-authn-core--><path d="M108.1142,79.0159 C105.9844,92.2677 104.5777,110.5803 109,126 C111.5127,134.7614 116.1427,143.4749 121.0258,151.0252 " fill="none" id="solid-client-authn-node-solid-client-authn-core" style="stroke: #A80036; stroke-width: 1.0;"/><polygon fill="#A80036" points="124.0823,155.566,122.375,145.8663,121.2903,151.4181,115.7384,150.3335,124.0823,155.566" style="stroke: #A80036; stroke-width: 1.0;"/><text fill="#000000" font-family="sans-serif" font-size="13" lengthAdjust="spacingAndGlyphs" textLength="75" x="110" y="122.0669">depends on</text><!--
@startuml


package "Client libraries" {
	[solid-client-authn-browser]
	[solid-client-authn-node]
}

[solid-client-authn-browser] - -> [solid-client-authn-core]: depends on
[solid-client-authn-browser] - -> [oidc-client-ext]: depends on
[solid-client-authn-node] - -> [solid-client-authn-core]: depends on


@enduml

PlantUML version 1.2017.15(Mon Jul 03 18:45:34 CEST 2017)
(GPL source distribution)
Java Runtime: OpenJDK Runtime Environment
JVM: OpenJDK 64-Bit Server VM
Java Version: 11.0.11+9-Ubuntu-0ubuntu2.18.04
Operating System: Linux
OS Version: 4.15.0-142-generic
Default Encoding: UTF-8
Language: fr
Country: FR
--></g></svg>